<svg xmlns="http://www.w3.org/2000/svg" viewBox="0 0 300.344 300.344" width="901.033" height="901.033"><g stroke-linecap="round"><path d="m192.69 11.867 97.856 93.147-182.61 184.83-99.392-97.1" stroke-width="0" fill="#ddd"/><path d="M194.747 10.87c31.212 32.781 68.695 66.588 96.103 98.083M193.113 10.65c23.703 22.585 47.023 45.608 96.096 96.52m1.471.89c-42.646 43.636-84.825 85.546-182.929 181.402m182.823-182.13c-45.403 44.173-91.167 89.612-182.285 182.936m-.255.778c-27.747-26.474-56.66-56.123-98.422-96.47m97.249 95.324C83.498 268.985 60.375 245.467 10 194.244m1.011-1.11C79.072 126.63 147.25 55.212 191.798 9.887M10.108 192.059C64.695 136.042 120.167 80.583 192.32 10.226" stroke="#dddd" stroke-width="2" fill="none"/></g><g stroke-linecap="round"><path d="m122.6 93.812 83.855 85.227-21.17 17.041-80.455-81.062" stroke-width="0" fill="#1a1a1a"/><path d="M121.192 97.41c29.635 26.567 61.476 57.163 83.318 78.497m-82.696-81.013c20.924 23.454 42.625 44.576 82.675 84.555m-1.046-1.838c-1.21 4.858-6.336 7.552-18.244 19.106m20.478-18.215c-5.6 4.638-7.637 8.004-19.34 17.416m1.266 1.464c-22.372-23.49-43.175-46.019-82.597-85.355m82.54 84.548c-23.737-23.299-45.197-45.707-82.921-83.375m-1.867-.41c6.449-3.493 12.954-11.907 20.492-16.998m-18.435 17.868c3.989-5.416 11.314-12.106 16.37-18.59" stroke="#000" stroke-width="2" fill="none"/></g><g stroke-linecap="round"><path d="m121.322 95.202 82.003 85.949-61.865 61.257-84.308-83.446" stroke-width="0" fill="#fab005"/><path d="M121.308 97.196c27.86 26.361 53.846 53.903 83.41 82.053m-82.972-82.067c18.908 19.643 39.874 38.346 82.562 82.675m-.34-1.386c-14.085 14.92-27.096 30.066-63.286 64.7m63.025-62.501c-24.685 21.234-48.098 46.202-62.827 62.812m-.438-1.315c-31.29-31.275-61.737-61.85-81.275-81.741m80.95 83.523c-30.717-32.145-62.261-63.378-81.911-83.269m.898.559c11.808-14.963 26.24-30.385 61.327-62.855m-62.487 62.614c22.677-24.897 46.09-46.711 61.843-64.403" stroke="#000" stroke-width="2" fill="none"/></g><g stroke-linecap="round"><path d="m194.31 24.095 81.148 82.024-62.544 66.645-82.463-84.952" stroke-width="0" fill="#1a1a1a"/><path d="M192.38 22.956c26.474 28.072 50.89 52.361 82.243 85.991m-80.32-84.35c23.646 23.97 46.351 46.973 81.89 82.964m1.598-.17c-18.194 16.865-33.467 33.567-67.04 65.005m65.315-65.216c-25.54 25.413-51.23 50.763-64.149 63.54m-.735-1.216c-18.78-19.983-40.708-41.09-83.432-80.745m83.587 82.145c-29.316-29.953-61.504-61.462-82.427-81.593m-.417-1.322c17.776-15.387 37.32-34.38 62.72-62.438m-61.518 62.58c19.113-19.312 40.616-40.122 63.06-62.58" stroke="#000" stroke-width="2" fill="none"/></g><g stroke-linecap="round"><path d="m213.025 44.442 42.518 44.343-39.64 37.689-42.879-40.206" stroke-width="0" fill="#fab005"/><path d="M214.241 45.616c7.085 7.27 14.842 18.859 39.513 42.045m-39.923-41.437c13.343 14.447 29.416 29.953 40.546 40.574m.834.495c-8.648 10.67-22.196 22.083-37.703 39.683m37.894-39.365c-9.991 9.751-20.131 18.505-40.397 38.545m1.513 1.032c-11.816-11.193-26.333-22.995-42.193-40.538m41.231 40.793c-14.7-13.711-27.456-25.42-42.341-42.045m-.438 1.994c16.136-15.288 26.947-28.673 42.1-42.85M172.14 85.595c9.44-8.874 17.197-15.387 41.797-40.17" stroke="#000" stroke-width="2" fill="none"/></g><g stroke-linecap="round"><path d="m81.276 136.84 49.8-.56 2.76 49.71-51.8.34" stroke-width="0" fill="#1a1a1a"/><path d="M82.366 136.39c14.72.04 30.9-1.48 52.07.43m-52.58.33c15.05-1.52 30.16-.85 50.84-.39m-.51-1.53c-.75 17.31.44 32.62 1.69 49.5m-1.45-49.08c.48 20.86.44 39.79.56 49.72m-.16-1.43c-14.19 1.86-27.92 3.23-48.31.13m48.43 1.74c-12.86.23-25.8-.38-49.62-1.34m.6.96c-1.51-18.45-.27-39.54-1.95-50.52m-.05 49.1c.61-9.73.58-22.65.09-46.67" stroke="#000" stroke-width="2" fill="none"/></g><g stroke-linecap="round"><path d="m115.395 167.499 51.01 3.78.88 47.46-53.06 1.06" stroke-width="0" fill="#1a1a1a"/><path d="M114.205 167.549c21.01 1.2 39.36.24 52.63 2.81m-51.09-1.14c13.8 1.01 26.85.38 49.73.25m-.37.99c-1.69 14.98-.94 30.08 1.88 45.79m-.72-46.79c-.04 17.01-.92 35.44-1.59 48.59m.84.47c-10.44.56-21.98-1.67-50.96-.96m51.53-.07c-10.02.85-21.43 1.68-51.2.98m1.08-.47c-.24-16.45-2.34-32.46.57-46.74m-1.92 47.35c1.69-16.01.49-33.09 1.45-48.37" stroke="#000" stroke-width="2" fill="none"/></g><g stroke-linecap="round"><path d="m80 135.636 85.009 84.4-26.043 21.913-84.344-80.242" stroke-width="0" fill="#1a1a1a"/><path d="M81.881 135.763c32.018 29.571 63.491 64.212 82.774 81.331m-83.544-81.013c22.33 21.34 42.631 41.444 83.657 81.918m-1.018-.028c-8.952 9.122-16.73 15.98-25.866 26.601m27.782-26.056c-7.905 5.727-14.368 12.445-27.096 25.498m1.146-2.023c-25.45-25.9-53.635-49.716-85.115-80.815m85.044 82.993c-23.158-22.875-46.676-44.286-82.88-83.954m-.608.282c9.539-7.643 15.994-15.061 25.71-22.655M57.24 160.335c5.034-6.477 12.692-13.372 25.2-24.212" stroke="#000" stroke-width="2" fill="none"/></g><g stroke-linecap="round"><path d="m56.756 163.43 81.247 82.548-31.763 29.94-80.06-82.252" stroke-width="0" fill="#fab005"/><path d="M54.988 163.091c19.722 15.832 36.883 34.72 84.005 82.647m-83.297-84.33c21.51 23.759 43.883 45.58 82.561 84.33m1.506-1.549c-8.81 7.1-12.579 13.046-33.601 31.806m31.049-31.205c-9.758 10.267-20.492 21.1-30.215 31.205m-1.273.82c-20.188-24.204-42.702-46.308-80.54-84.131m82.216 82.47c-28.829-26.496-55.91-55.742-82.477-81.261m-.46-3.034c6.442-5.876 15.677-12.325 33.22-28.242M23.99 192.662c10.698-9.807 20.612-18.335 30.695-30.639" stroke="#000" stroke-width="2" fill="none"/></g></svg>
